FILE "Silhouette Stories (Japan) (Track 01).bin" BINARY
  TRACK 01 MODE2/2352
    INDEX 01 00:00:00
  TRACK 02 AUDIO
    INDEX 00 05:44:13
    INDEX 01 05:46:13
  TRACK 03 AUDIO
    INDEX 00 05:51:38
    INDEX 01 05:53:38
  TRACK 04 AUDIO
    INDEX 00 06:53:60
    INDEX 01 06:55:60
  TRACK 05 AUDIO
    INDEX 00 08:11:31
    INDEX 01 08:13:31
  TRACK 06 AUDIO
    INDEX 00 09:47:44
    INDEX 01 09:49:44
  TRACK 07 AUDIO
    INDEX 00 11:20:03
    INDEX 01 11:22:03
  TRACK 08 AUDIO
    INDEX 00 12:52:06
    INDEX 01 12:54:06
  TRACK 09 AUDIO
    INDEX 00 16:25:47
    INDEX 01 16:27:47
  TRACK 10 AUDIO
    INDEX 00 17:04:05
    INDEX 01 17:06:05
  TRACK 11 AUDIO
    INDEX 00 20:05:20
    INDEX 01 20:07:20
  TRACK 12 AUDIO
    INDEX 00 23:41:30
    INDEX 01 23:43:30
  TRACK 13 AUDIO
    INDEX 00 28:05:30
    INDEX 01 28:07:30
  TRACK 14 AUDIO
    INDEX 00 31:06:58
    INDEX 01 31:08:58
  TRACK 15 AUDIO
    INDEX 00 31:15:67
    INDEX 01 31:17:67
  TRACK 16 AUDIO
    INDEX 00 31:23:23
    INDEX 01 31:25:23
  TRACK 17 AUDIO
    INDEX 00 31:30:27
    INDEX 01 31:32:27
  TRACK 18 AUDIO
    INDEX 00 32:33:60
    INDEX 01 32:35:60
  TRACK 19 AUDIO
    INDEX 00 33:35:61
    INDEX 01 33:37:61
  TRACK 20 AUDIO
    INDEX 00 34:07:66
    INDEX 01 34:09:66
  TRACK 21 AUDIO
    INDEX 00 35:40:54
    INDEX 01 35:42:54
  TRACK 22 AUDIO
    INDEX 00 36:03:36
    INDEX 01 36:05:36
  TRACK 23 AUDIO
    INDEX 00 36:35:37
    INDEX 01 36:37:37
  TRACK 24 AUDIO
    INDEX 00 36:42:65
    INDEX 01 36:44:65
  TRACK 25 AUDIO
    INDEX 00 36:54:66
    INDEX 01 36:56:66
  TRACK 26 AUDIO
    INDEX 00 37:08:11
    INDEX 01 37:10:11
  TRACK 27 AUDIO
    INDEX 00 38:12:55
    INDEX 01 38:14:55
  TRACK 28 AUDIO
    INDEX 00 38:24:11
    INDEX 01 38:26:11
  TRACK 29 AUDIO
    INDEX 00 39:30:50
    INDEX 01 39:32:50
  TRACK 30 AUDIO
    INDEX 00 40:02:51
    INDEX 01 40:04:51
  TRACK 31 AUDIO
    INDEX 00 40:34:51
    INDEX 01 40:36:51
  TRACK 32 AUDIO
    INDEX 00 41:00:67
    INDEX 01 41:02:67
  TRACK 33 AUDIO
    INDEX 00 41:32:68
    INDEX 01 41:34:68
  TRACK 34 AUDIO
    INDEX 00 42:10:69
    INDEX 01 42:12:69
  TRACK 35 AUDIO
    INDEX 00 42:42:69
    INDEX 01 42:44:69
  TRACK 36 AUDIO
    INDEX 00 43:08:26
    INDEX 01 43:10:26
  TRACK 37 AUDIO
    INDEX 00 43:40:27
    INDEX 01 43:42:27
  TRACK 38 AUDIO
    INDEX 00 44:15:11
    INDEX 01 44:17:11
  TRACK 39 AUDIO
    INDEX 00 44:47:13
    INDEX 01 44:49:13
  TRACK 40 AUDIO
    INDEX 00 45:19:13
    INDEX 01 45:21:13
  TRACK 41 AUDIO
    INDEX 00 45:51:14
    INDEX 01 45:53:14
  TRACK 42 AUDIO
    INDEX 00 46:23:15
    INDEX 01 46:25:15
  TRACK 43 AUDIO
    INDEX 00 46:55:66
    INDEX 01 46:57:66
  TRACK 44 AUDIO
    INDEX 00 47:24:55
    INDEX 01 47:26:55
  TRACK 45 AUDIO
    INDEX 00 49:43:35
    INDEX 01 49:45:35
  TRACK 46 AUDIO
    INDEX 00 51:48:70
    INDEX 01 51:50:70
  TRACK 47 AUDIO
    INDEX 00 53:12:47
    INDEX 01 53:14:47
  TRACK 48 AUDIO
    INDEX 00 54:12:52
    INDEX 01 54:14:52
  TRACK 49 AUDIO
    INDEX 00 55:40:57
    INDEX 01 55:42:57
  TRACK 50 AUDIO
    INDEX 00 58:53:47
    INDEX 01 58:55:47
  TRACK 51 AUDIO
    INDEX 00 59:33:61
    INDEX 01 59:35:61
  TRACK 52 AUDIO
    INDEX 00 60:56:21
    INDEX 01 60:58:21
  TRACK 53 AUDIO
    INDEX 00 61:30:71
    INDEX 01 61:32:71
  TRACK 54 AUDIO
    INDEX 00 62:08:73
    INDEX 01 62:10:73
  TRACK 55 AUDIO
    INDEX 00 62:36:03
    INDEX 01 62:38:03
  TRACK 56 AUDIO
    INDEX 00 63:14:00
    INDEX 01 63:16:00
  TRACK 57 AUDIO
    INDEX 00 63:56:01
    INDEX 01 63:58:01
  TRACK 58 AUDIO
    INDEX 00 64:34:01
    INDEX 01 64:36:01
  TRACK 59 AUDIO
    INDEX 00 64:42:13
    INDEX 01 64:44:13
